<mxfile host="Electron" agent="Mozilla/5.0 (X11; Linux x86_64) AppleWebKit/537.36 (KHTML, like Gecko) draw.io/25.0.1 Chrome/128.0.6613.186 Electron/32.2.6 Safari/537.36" version="25.0.1">
  <diagram name="Page-1" id="vxaux1zAwFNBMxkV2yye">
    <mxGraphModel dx="1140" dy="698" grid="1" gridSize="10" guides="1" tooltips="1" connect="1" arrows="1" fold="1" page="1" pageScale="1" pageWidth="827" pageHeight="1169" background="none" math="0" shadow="0">
      <root>
        <mxCell id="0" />
        <mxCell id="1" parent="0" />
        <mxCell id="RXDNkgKjBnGQcGUgSz9z-22" value="" style="shape=partialRectangle;whiteSpace=wrap;html=1;left=0;right=0;fillColor=none;" parent="1" vertex="1">
          <mxGeometry x="34" y="809" width="766" height="321" as="geometry" />
        </mxCell>
        <mxCell id="RXDNkgKjBnGQcGUgSz9z-12" value="&lt;blockquote style=&quot;margin: 0px 0px 0px 40px; border: none; padding: 0px;&quot;&gt;&lt;font style=&quot;font-size: 18px;&quot;&gt;Deploy&lt;/font&gt;&lt;/blockquote&gt;" style="shape=partialRectangle;whiteSpace=wrap;html=1;left=0;right=0;align=left;fillColor=none;fontSize=14;" parent="1" vertex="1">
          <mxGeometry x="34" y="569" width="760" height="240" as="geometry" />
        </mxCell>
        <mxCell id="7GWUCzSHgf2mrMIaNCZP-14" value="&lt;blockquote style=&quot;margin: 0px 0px 0px 40px; border: none; padding: 0px; font-size: 18px;&quot;&gt;&lt;font style=&quot;font-size: 18px;&quot;&gt;Development&lt;/font&gt;&lt;div style=&quot;&quot;&gt;&lt;span style=&quot;background-color: initial;&quot;&gt;&lt;font style=&quot;font-size: 18px;&quot;&gt;Environment&lt;/font&gt;&lt;/span&gt;&lt;/div&gt;&lt;/blockquote&gt;" style="shape=partialRectangle;whiteSpace=wrap;html=1;left=0;right=0;align=left;fillColor=none;" parent="1" vertex="1">
          <mxGeometry x="34" y="80" width="760" height="240" as="geometry" />
        </mxCell>
        <mxCell id="RXDNkgKjBnGQcGUgSz9z-1" value="code" style="verticalLabelPosition=middle;verticalAlign=middle;html=1;shape=mxgraph.basic.layered_rect;dx=10;outlineConnect=0;whiteSpace=wrap;labelPosition=center;align=center;fontSize=14;strokeWidth=1;" parent="1" vertex="1">
          <mxGeometry x="284" y="170" width="130" height="90" as="geometry" />
        </mxCell>
        <mxCell id="RXDNkgKjBnGQcGUgSz9z-2" value="&lt;font style=&quot;font-size: 14px;&quot;&gt;App Configuration&lt;/font&gt;" style="sketch=0;points=[[0,0,0],[0.25,0,0],[0.5,0,0],[0.75,0,0],[1,0,0],[0,1,0],[0.25,1,0],[0.5,1,0],[0.75,1,0],[1,1,0],[0,0.25,0],[0,0.5,0],[0,0.75,0],[1,0.25,0],[1,0.5,0],[1,0.75,0]];points=[[0,0,0],[0.25,0,0],[0.5,0,0],[0.75,0,0],[1,0,0],[0,1,0],[0.25,1,0],[0.5,1,0],[0.75,1,0],[1,1,0],[0,0.25,0],[0,0.5,0],[0,0.75,0],[1,0.25,0],[1,0.5,0],[1,0.75,0]];outlineConnect=0;fillColor=none;dashed=0;verticalLabelPosition=bottom;verticalAlign=top;align=center;html=1;fontSize=12;fontStyle=0;aspect=fixed;shape=mxgraph.aws4.resourceIcon;resIcon=mxgraph.aws4.app_config;strokeWidth=1;" parent="1" vertex="1">
          <mxGeometry x="450" y="170" width="80" height="80" as="geometry" />
        </mxCell>
        <mxCell id="RXDNkgKjBnGQcGUgSz9z-3" value="&lt;font style=&quot;font-size: 14px;&quot;&gt;Application&lt;/font&gt;" style="shape=umlFrame;whiteSpace=wrap;html=1;pointerEvents=0;width=80;height=30;" parent="1" vertex="1">
          <mxGeometry x="220" y="115" width="350" height="170" as="geometry" />
        </mxCell>
        <mxCell id="RXDNkgKjBnGQcGUgSz9z-4" value="" style="html=1;verticalLabelPosition=bottom;align=center;labelBackgroundColor=#ffffff;verticalAlign=top;strokeWidth=2;strokeColor=#0080F0;shadow=0;dashed=0;shape=mxgraph.ios7.icons.tools;pointerEvents=1" parent="1" vertex="1">
          <mxGeometry x="650" y="170" width="40" height="40" as="geometry" />
        </mxCell>
        <mxCell id="RXDNkgKjBnGQcGUgSz9z-6" value="&lt;font style=&quot;font-size: 14px;&quot;&gt;source control, build tools&lt;/font&gt;" style="text;html=1;align=center;verticalAlign=middle;whiteSpace=wrap;rounded=0;" parent="1" vertex="1">
          <mxGeometry x="620" y="240" width="100" as="geometry" />
        </mxCell>
        <mxCell id="RXDNkgKjBnGQcGUgSz9z-7" value="&lt;blockquote style=&quot;margin: 0px 0px 0px 40px; border: none; padding: 0px;&quot;&gt;&lt;font style=&quot;font-size: 18px;&quot;&gt;Build&lt;/font&gt;&lt;/blockquote&gt;" style="shape=partialRectangle;whiteSpace=wrap;html=1;left=0;right=0;align=left;fillColor=none;fontSize=14;" parent="1" vertex="1">
          <mxGeometry x="34" y="324" width="760" height="240" as="geometry" />
        </mxCell>
        <mxCell id="RXDNkgKjBnGQcGUgSz9z-8" value="Business Logic package" style="shape=folder;fontStyle=0;spacingTop=10;tabWidth=40;tabHeight=14;tabPosition=left;html=1;whiteSpace=wrap;fontSize=14;" parent="1" vertex="1">
          <mxGeometry x="460" y="385" width="140" height="90" as="geometry" />
        </mxCell>
        <mxCell id="RXDNkgKjBnGQcGUgSz9z-9" value="Client-side logic:&lt;div&gt;HTML5, static assets, resources&lt;/div&gt;" style="html=1;shape=mxgraph.basic.isocube;isoAngle=15;fontSize=14;labelPosition=center;verticalLabelPosition=bottom;align=center;verticalAlign=top;" parent="1" vertex="1">
          <mxGeometry x="270" y="375" width="100" height="100" as="geometry" />
        </mxCell>
        <mxCell id="RXDNkgKjBnGQcGUgSz9z-14" value="&lt;font style=&quot;font-size: 14px;&quot;&gt;App Server&lt;/font&gt;" style="rounded=0;whiteSpace=wrap;html=1;fontSize=14;" parent="1" vertex="1">
          <mxGeometry x="480" y="640" width="140" height="110" as="geometry" />
        </mxCell>
        <mxCell id="RXDNkgKjBnGQcGUgSz9z-15" value="&lt;font style=&quot;font-size: 14px;&quot;&gt;Web Server&lt;/font&gt;" style="rounded=0;whiteSpace=wrap;html=1;fontSize=14;" parent="1" vertex="1">
          <mxGeometry x="250" y="640" width="140" height="110" as="geometry" />
        </mxCell>
        <mxCell id="RXDNkgKjBnGQcGUgSz9z-16" value="Tomcat&lt;div&gt;JBOSS&lt;/div&gt;&lt;div&gt;WebLogic&lt;/div&gt;" style="text;strokeColor=none;fillColor=none;html=1;fontSize=14;fontStyle=0;verticalAlign=middle;align=center;" parent="1" vertex="1">
          <mxGeometry x="640" y="675" width="100" height="40" as="geometry" />
        </mxCell>
        <mxCell id="RXDNkgKjBnGQcGUgSz9z-18" value="" style="shape=trapezoid;perimeter=trapezoidPerimeter;whiteSpace=wrap;html=1;fixedSize=1;fontSize=14;flipH=1;flipV=1;strokeWidth=2;" parent="1" vertex="1">
          <mxGeometry x="190" y="830" width="530" height="10" as="geometry" />
        </mxCell>
        <mxCell id="RXDNkgKjBnGQcGUgSz9z-21" value="&lt;blockquote style=&quot;margin: 0px 0px 0px 40px; border: none; padding: 0px; font-size: 14px;&quot;&gt;&lt;blockquote style=&quot;margin: 0 0 0 40px; border: none; padding: 0px;&quot;&gt;Compute instances&lt;/blockquote&gt;&lt;blockquote style=&quot;margin: 0 0 0 40px; border: none; padding: 0px;&quot;&gt;AWS EC2&lt;/blockquote&gt;&lt;blockquote style=&quot;margin: 0 0 0 40px; border: none; padding: 0px;&quot;&gt;Azure VMs&lt;/blockquote&gt;&lt;/blockquote&gt;" style="outlineConnect=0;dashed=0;verticalLabelPosition=middle;verticalAlign=middle;align=left;html=1;shape=mxgraph.aws3.ec2;fillColor=#dae8fc;strokeColor=#6c8ebf;gradientColor=#7ea6e0;labelPosition=right;" parent="1" vertex="1">
          <mxGeometry x="281.75" y="870" width="76.5" height="93" as="geometry" />
        </mxCell>
        <mxCell id="RXDNkgKjBnGQcGUgSz9z-23" value="" style="shape=trapezoid;perimeter=trapezoidPerimeter;whiteSpace=wrap;html=1;fixedSize=1;fontSize=14;flipH=1;flipV=1;strokeWidth=2;" parent="1" vertex="1">
          <mxGeometry x="180" y="990" width="530" height="10" as="geometry" />
        </mxCell>
        <mxCell id="RXDNkgKjBnGQcGUgSz9z-24" value="&lt;blockquote style=&quot;margin: 0 0 0 40px; border: none; padding: 0px;&quot;&gt;&lt;blockquote style=&quot;margin: 0 0 0 40px; border: none; padding: 0px;&quot;&gt;&lt;font style=&quot;font-size: 18px;&quot;&gt;Data Center&lt;/font&gt;&lt;/blockquote&gt;&lt;/blockquote&gt;" style="image;aspect=fixed;html=1;points=[];align=left;fontSize=12;image=img/lib/azure2/other/Modular_Data_Center.svg;labelPosition=right;verticalLabelPosition=middle;verticalAlign=middle;" parent="1" vertex="1">
          <mxGeometry x="260" y="1020" width="90" height="90" as="geometry" />
        </mxCell>
        <mxCell id="RXDNkgKjBnGQcGUgSz9z-25" value="&lt;font style=&quot;font-size: 18px;&quot;&gt;Provision&lt;/font&gt;" style="text;html=1;align=center;verticalAlign=middle;whiteSpace=wrap;rounded=0;" parent="1" vertex="1">
          <mxGeometry x="80" y="901.5" width="60" height="30" as="geometry" />
        </mxCell>
        <mxCell id="RXDNkgKjBnGQcGUgSz9z-27" value="" style="shape=singleArrow;direction=south;whiteSpace=wrap;html=1;" parent="1" vertex="1">
          <mxGeometry x="290" y="270" width="60" height="90" as="geometry" />
        </mxCell>
        <mxCell id="RXDNkgKjBnGQcGUgSz9z-28" value="" style="shape=singleArrow;direction=south;whiteSpace=wrap;html=1;rotation=314;" parent="1" vertex="1">
          <mxGeometry x="398.56" y="256.61" width="60" height="114" as="geometry" />
        </mxCell>
        <mxCell id="Z2qK_XcSLysmgWAcn12r-4" value="" style="shape=flexArrow;endArrow=classic;html=1;rounded=0;endWidth=36;endSize=6.97;width=16;" edge="1" parent="1">
          <mxGeometry width="50" height="50" relative="1" as="geometry">
            <mxPoint x="551" y="530" as="sourcePoint" />
            <mxPoint x="551" y="629" as="targetPoint" />
          </mxGeometry>
        </mxCell>
        <mxCell id="Z2qK_XcSLysmgWAcn12r-6" value="" style="shape=flexArrow;endArrow=classic;html=1;rounded=0;endWidth=36;endSize=6.97;width=16;" edge="1" parent="1">
          <mxGeometry width="50" height="50" relative="1" as="geometry">
            <mxPoint x="319.71000000000004" y="530" as="sourcePoint" />
            <mxPoint x="319.71000000000004" y="629" as="targetPoint" />
          </mxGeometry>
        </mxCell>
      </root>
    </mxGraphModel>
  </diagram>
</mxfile>
